<mxfile host="app.diagrams.net" modified="2021-05-24T06:44:32.501Z" agent="5.0 (Windows NT 10.0; Win64; x64) AppleWebKit/537.36 (KHTML, like Gecko) Chrome/86.0.4240.111 Safari/537.36" etag="k5FFdS3dcT5Etw2OvVcy" version="14.7.0" type="github">
  <diagram id="yglCbP8OD9rMLNFjM7ZE" name="第 1 页">
    <mxGraphModel dx="868" dy="421" grid="1" gridSize="10" guides="1" tooltips="1" connect="1" arrows="1" fold="1" page="1" pageScale="1" pageWidth="827" pageHeight="1169" math="0" shadow="0">
      <root>
        <mxCell id="0" />
        <mxCell id="1" parent="0" />
        <mxCell id="3iqUo-m16Uvu6Jflfh_F-33" value="" style="rounded=0;whiteSpace=wrap;html=1;fillColor=#f5f5f5;strokeColor=#666666;fontColor=#333333;" parent="1" vertex="1">
          <mxGeometry x="40" y="120" width="670" height="360" as="geometry" />
        </mxCell>
        <mxCell id="3iqUo-m16Uvu6Jflfh_F-6" value="" style="rounded=0;whiteSpace=wrap;html=1;fillColor=none;" parent="1" vertex="1">
          <mxGeometry x="180" y="140" width="300" height="80" as="geometry" />
        </mxCell>
        <mxCell id="3iqUo-m16Uvu6Jflfh_F-3" value="&lt;span&gt;微信群&lt;/span&gt;" style="ellipse;whiteSpace=wrap;html=1;aspect=fixed;fillColor=none;" parent="1" vertex="1">
          <mxGeometry x="210" y="150" width="60" height="60" as="geometry" />
        </mxCell>
        <mxCell id="3iqUo-m16Uvu6Jflfh_F-7" value="&lt;span&gt;微信群&lt;/span&gt;" style="ellipse;whiteSpace=wrap;html=1;aspect=fixed;fillColor=none;" parent="1" vertex="1">
          <mxGeometry x="280" y="150" width="60" height="60" as="geometry" />
        </mxCell>
        <mxCell id="3iqUo-m16Uvu6Jflfh_F-8" value="&lt;span&gt;微信群&lt;/span&gt;" style="ellipse;whiteSpace=wrap;html=1;aspect=fixed;fillColor=none;" parent="1" vertex="1">
          <mxGeometry x="350" y="150" width="60" height="60" as="geometry" />
        </mxCell>
        <mxCell id="3iqUo-m16Uvu6Jflfh_F-9" value="" style="rounded=0;whiteSpace=wrap;html=1;fillColor=none;" parent="1" vertex="1">
          <mxGeometry x="180" y="250" width="300" height="80" as="geometry" />
        </mxCell>
        <mxCell id="3iqUo-m16Uvu6Jflfh_F-10" value="&lt;span&gt;微信群&lt;/span&gt;" style="ellipse;whiteSpace=wrap;html=1;aspect=fixed;fillColor=none;" parent="1" vertex="1">
          <mxGeometry x="210" y="260" width="60" height="60" as="geometry" />
        </mxCell>
        <mxCell id="3iqUo-m16Uvu6Jflfh_F-11" value="&lt;span&gt;微信群&lt;/span&gt;" style="ellipse;whiteSpace=wrap;html=1;aspect=fixed;fillColor=none;" parent="1" vertex="1">
          <mxGeometry x="280" y="260" width="60" height="60" as="geometry" />
        </mxCell>
        <mxCell id="3iqUo-m16Uvu6Jflfh_F-12" value="&lt;span&gt;微信群&lt;/span&gt;" style="ellipse;whiteSpace=wrap;html=1;aspect=fixed;fillColor=none;" parent="1" vertex="1">
          <mxGeometry x="350" y="260" width="60" height="60" as="geometry" />
        </mxCell>
        <mxCell id="3iqUo-m16Uvu6Jflfh_F-13" value="" style="rounded=0;whiteSpace=wrap;html=1;fillColor=none;" parent="1" vertex="1">
          <mxGeometry x="180" y="360" width="300" height="80" as="geometry" />
        </mxCell>
        <mxCell id="3iqUo-m16Uvu6Jflfh_F-14" value="&lt;span&gt;微信群&lt;/span&gt;" style="ellipse;whiteSpace=wrap;html=1;aspect=fixed;fillColor=none;" parent="1" vertex="1">
          <mxGeometry x="210" y="370" width="60" height="60" as="geometry" />
        </mxCell>
        <mxCell id="3iqUo-m16Uvu6Jflfh_F-15" value="&lt;span&gt;微信群&lt;/span&gt;" style="ellipse;whiteSpace=wrap;html=1;aspect=fixed;fillColor=none;" parent="1" vertex="1">
          <mxGeometry x="280" y="370" width="60" height="60" as="geometry" />
        </mxCell>
        <mxCell id="3iqUo-m16Uvu6Jflfh_F-16" value="&lt;span&gt;微信群&lt;/span&gt;" style="ellipse;whiteSpace=wrap;html=1;aspect=fixed;fillColor=none;" parent="1" vertex="1">
          <mxGeometry x="350" y="370" width="60" height="60" as="geometry" />
        </mxCell>
        <mxCell id="3iqUo-m16Uvu6Jflfh_F-17" value="社区" style="text;html=1;strokeColor=none;fillColor=none;align=center;verticalAlign=middle;whiteSpace=wrap;rounded=0;" parent="1" vertex="1">
          <mxGeometry x="430" y="170" width="40" height="20" as="geometry" />
        </mxCell>
        <mxCell id="3iqUo-m16Uvu6Jflfh_F-18" value="社区" style="text;html=1;strokeColor=none;fillColor=none;align=center;verticalAlign=middle;whiteSpace=wrap;rounded=0;" parent="1" vertex="1">
          <mxGeometry x="430" y="280" width="40" height="20" as="geometry" />
        </mxCell>
        <mxCell id="3iqUo-m16Uvu6Jflfh_F-19" value="社区" style="text;html=1;strokeColor=none;fillColor=none;align=center;verticalAlign=middle;whiteSpace=wrap;rounded=0;" parent="1" vertex="1">
          <mxGeometry x="430" y="400" width="40" height="20" as="geometry" />
        </mxCell>
        <mxCell id="3iqUo-m16Uvu6Jflfh_F-20" value="" style="rounded=1;whiteSpace=wrap;html=1;fillColor=none;" parent="1" vertex="1">
          <mxGeometry x="50" y="135" width="70" height="310" as="geometry" />
        </mxCell>
        <mxCell id="3iqUo-m16Uvu6Jflfh_F-21" value="好食天天&lt;br&gt;社区超市" style="text;html=1;strokeColor=#82b366;fillColor=#d5e8d4;align=center;verticalAlign=middle;whiteSpace=wrap;rounded=0;" parent="1" vertex="1">
          <mxGeometry x="55" y="150" width="60" height="60" as="geometry" />
        </mxCell>
        <mxCell id="3iqUo-m16Uvu6Jflfh_F-22" value="" style="rounded=1;whiteSpace=wrap;html=1;fillColor=none;" parent="1" vertex="1">
          <mxGeometry x="570" y="140" width="120" height="300" as="geometry" />
        </mxCell>
        <mxCell id="3iqUo-m16Uvu6Jflfh_F-23" value="好食&lt;br&gt;微信公众号" style="text;html=1;strokeColor=#6c8ebf;fillColor=#dae8fc;align=center;verticalAlign=middle;whiteSpace=wrap;rounded=0;" parent="1" vertex="1">
          <mxGeometry x="590" y="150" width="80" height="40" as="geometry" />
        </mxCell>
        <mxCell id="3iqUo-m16Uvu6Jflfh_F-34" value="" style="rounded=0;whiteSpace=wrap;html=1;fillColor=#fff2cc;strokeColor=#d6b656;" parent="1" vertex="1">
          <mxGeometry x="40" y="490" width="670" height="120" as="geometry" />
        </mxCell>
        <mxCell id="3iqUo-m16Uvu6Jflfh_F-35" value="线上-online，微信生态" style="text;html=1;strokeColor=none;fillColor=none;align=center;verticalAlign=middle;whiteSpace=wrap;rounded=0;fontStyle=5" parent="1" vertex="1">
          <mxGeometry x="634" y="450" width="80" height="20" as="geometry" />
        </mxCell>
        <mxCell id="3iqUo-m16Uvu6Jflfh_F-36" value="线下-offline" style="text;html=1;strokeColor=none;fillColor=none;align=center;verticalAlign=middle;whiteSpace=wrap;rounded=0;fontStyle=5" parent="1" vertex="1">
          <mxGeometry x="630" y="590" width="80" height="20" as="geometry" />
        </mxCell>
        <mxCell id="3iqUo-m16Uvu6Jflfh_F-37" value="" style="endArrow=classic;html=1;exitX=0;exitY=0.127;exitDx=0;exitDy=0;entryX=1;entryY=0.25;entryDx=0;entryDy=0;endFill=1;exitPerimeter=0;dashed=1;edgeStyle=orthogonalEdgeStyle;curved=1;fillColor=#f8cecc;strokeColor=#b85450;strokeWidth=2;" parent="1" source="3iqUo-m16Uvu6Jflfh_F-22" target="3iqUo-m16Uvu6Jflfh_F-6" edge="1">
          <mxGeometry relative="1" as="geometry">
            <mxPoint x="600" y="320" as="sourcePoint" />
            <mxPoint x="700" y="320" as="targetPoint" />
          </mxGeometry>
        </mxCell>
        <mxCell id="3iqUo-m16Uvu6Jflfh_F-39" value="" style="endArrow=classic;html=1;exitX=0;exitY=0.5;exitDx=0;exitDy=0;endFill=1;dashed=1;edgeStyle=orthogonalEdgeStyle;curved=1;strokeWidth=2;" parent="1" source="3iqUo-m16Uvu6Jflfh_F-22" target="3iqUo-m16Uvu6Jflfh_F-9" edge="1">
          <mxGeometry relative="1" as="geometry">
            <mxPoint x="530" y="188.10000000000002" as="sourcePoint" />
            <mxPoint x="490" y="170" as="targetPoint" />
          </mxGeometry>
        </mxCell>
        <mxCell id="3iqUo-m16Uvu6Jflfh_F-40" value="" style="endArrow=classic;html=1;exitX=0;exitY=0.75;exitDx=0;exitDy=0;endFill=1;dashed=1;edgeStyle=orthogonalEdgeStyle;curved=1;entryX=0.75;entryY=0;entryDx=0;entryDy=0;strokeWidth=2;" parent="1" source="3iqUo-m16Uvu6Jflfh_F-22" target="3iqUo-m16Uvu6Jflfh_F-13" edge="1">
          <mxGeometry relative="1" as="geometry">
            <mxPoint x="530" y="300" as="sourcePoint" />
            <mxPoint x="490" y="300" as="targetPoint" />
            <Array as="points">
              <mxPoint x="525" y="365" />
              <mxPoint x="525" y="330" />
              <mxPoint x="405" y="330" />
            </Array>
          </mxGeometry>
        </mxCell>
        <mxCell id="3iqUo-m16Uvu6Jflfh_F-41" value="门店" style="rounded=1;whiteSpace=wrap;html=1;fillColor=#ffffff;" parent="1" vertex="1">
          <mxGeometry x="55" y="510" width="155" height="60" as="geometry" />
        </mxCell>
        <mxCell id="3iqUo-m16Uvu6Jflfh_F-42" value="&lt;span&gt;门店&lt;/span&gt;" style="rounded=1;whiteSpace=wrap;html=1;fillColor=#ffffff;" parent="1" vertex="1">
          <mxGeometry x="230" y="510" width="140" height="60" as="geometry" />
        </mxCell>
        <mxCell id="3iqUo-m16Uvu6Jflfh_F-43" value="&lt;span&gt;门店&lt;/span&gt;" style="rounded=1;whiteSpace=wrap;html=1;fillColor=#ffffff;" parent="1" vertex="1">
          <mxGeometry x="510" y="510" width="150" height="60" as="geometry" />
        </mxCell>
        <mxCell id="3iqUo-m16Uvu6Jflfh_F-45" value="&lt;h1&gt;线下门店&lt;/h1&gt;&lt;p&gt;1&amp;nbsp;店面装修标准化，门头，牌匾&lt;/p&gt;&lt;p&gt;2&amp;nbsp;店内商品摆放标准化&lt;/p&gt;&lt;p&gt;3&amp;nbsp;连锁经营&lt;/p&gt;&lt;p&gt;4&amp;nbsp;商品线上控制，线下使用，动态价格设置&lt;/p&gt;&lt;p&gt;5&amp;nbsp;结算多样化：微信，支付宝，现金&lt;/p&gt;&lt;p&gt;6 。。。。。&lt;/p&gt;&lt;p&gt;&lt;br&gt;&lt;/p&gt;" style="text;html=1;strokeColor=none;fillColor=none;spacing=5;spacingTop=-20;whiteSpace=wrap;overflow=hidden;rounded=0;" parent="1" vertex="1">
          <mxGeometry x="40" y="630" width="330" height="200" as="geometry" />
        </mxCell>
        <mxCell id="3iqUo-m16Uvu6Jflfh_F-46" value="&lt;h1&gt;品牌&lt;/h1&gt;&lt;p&gt;3&amp;nbsp;社区范围影响力：张贴广告，店内迎客送客语音播报&lt;br&gt;&lt;/p&gt;&lt;p&gt;4&amp;nbsp;社会影响力：打造老百姓可信赖的品牌&lt;/p&gt;&lt;p&gt;&lt;br&gt;&lt;/p&gt;" style="text;html=1;strokeColor=none;fillColor=none;spacing=5;spacingTop=-20;whiteSpace=wrap;overflow=hidden;rounded=0;" parent="1" vertex="1">
          <mxGeometry x="360" y="620" width="300" height="140" as="geometry" />
        </mxCell>
        <mxCell id="3iqUo-m16Uvu6Jflfh_F-47" value="&lt;h1&gt;采购&lt;/h1&gt;&lt;p&gt;1&amp;nbsp;一手货源&lt;/p&gt;&lt;p&gt;2&amp;nbsp;价格优势&lt;/p&gt;&lt;p&gt;4&amp;nbsp;品质管控：次品率控制&lt;/p&gt;&lt;p&gt;&lt;br&gt;&lt;/p&gt;" style="text;html=1;strokeColor=none;fillColor=none;spacing=5;spacingTop=-20;whiteSpace=wrap;overflow=hidden;rounded=0;" parent="1" vertex="1">
          <mxGeometry x="40" y="830" width="300" height="140" as="geometry" />
        </mxCell>
        <mxCell id="3iqUo-m16Uvu6Jflfh_F-48" value="&lt;h1&gt;物流&lt;/h1&gt;&lt;p&gt;1&amp;nbsp;合作物流：建立长期合作关系&lt;/p&gt;&lt;p&gt;2&amp;nbsp;费用可控：降低成本&lt;/p&gt;&lt;p&gt;3&amp;nbsp;时间可控：配合销售&lt;/p&gt;&lt;p&gt;4&amp;nbsp;品质可控：破损率在可控范围&lt;/p&gt;&lt;p&gt;&lt;br&gt;&lt;/p&gt;" style="text;html=1;strokeColor=none;fillColor=none;spacing=5;spacingTop=-20;whiteSpace=wrap;overflow=hidden;rounded=0;" parent="1" vertex="1">
          <mxGeometry x="360" y="770" width="300" height="150" as="geometry" />
        </mxCell>
        <mxCell id="3iqUo-m16Uvu6Jflfh_F-49" value="" style="endArrow=classic;html=1;dashed=1;strokeColor=#FF3333;strokeWidth=2;exitX=-0.003;exitY=0.85;exitDx=0;exitDy=0;exitPerimeter=0;edgeStyle=orthogonalEdgeStyle;curved=1;entryX=1.014;entryY=0.329;entryDx=0;entryDy=0;entryPerimeter=0;" parent="1" source="3iqUo-m16Uvu6Jflfh_F-6" target="3iqUo-m16Uvu6Jflfh_F-20" edge="1">
          <mxGeometry relative="1" as="geometry">
            <mxPoint x="90" y="320" as="sourcePoint" />
            <mxPoint x="250" y="320" as="targetPoint" />
          </mxGeometry>
        </mxCell>
        <mxCell id="3iqUo-m16Uvu6Jflfh_F-52" value="" style="endArrow=classic;html=1;dashed=1;strokeColor=#FF3333;strokeWidth=2;entryX=1.014;entryY=0.468;entryDx=0;entryDy=0;edgeStyle=orthogonalEdgeStyle;curved=1;entryPerimeter=0;" parent="1" source="3iqUo-m16Uvu6Jflfh_F-9" target="3iqUo-m16Uvu6Jflfh_F-20" edge="1">
          <mxGeometry relative="1" as="geometry">
            <mxPoint x="189.0999999999999" y="218" as="sourcePoint" />
            <mxPoint x="165" y="190" as="targetPoint" />
          </mxGeometry>
        </mxCell>
        <mxCell id="3iqUo-m16Uvu6Jflfh_F-56" value="" style="endArrow=classic;html=1;dashed=1;strokeColor=#FF3333;strokeWidth=2;edgeStyle=orthogonalEdgeStyle;curved=1;exitX=0.25;exitY=0;exitDx=0;exitDy=0;" parent="1" source="3iqUo-m16Uvu6Jflfh_F-13" target="3iqUo-m16Uvu6Jflfh_F-20" edge="1">
          <mxGeometry relative="1" as="geometry">
            <mxPoint x="190" y="300" as="sourcePoint" />
            <mxPoint x="130.98000000000002" y="290.08000000000004" as="targetPoint" />
            <Array as="points">
              <mxPoint x="255" y="350" />
            </Array>
          </mxGeometry>
        </mxCell>
        <mxCell id="3iqUo-m16Uvu6Jflfh_F-57" value="" style="endArrow=classic;html=1;endFill=1;dashed=1;edgeStyle=orthogonalEdgeStyle;curved=1;strokeWidth=2;strokeColor=#6666FF;exitX=0.75;exitY=0;exitDx=0;exitDy=0;" parent="1" source="3iqUo-m16Uvu6Jflfh_F-43" target="3iqUo-m16Uvu6Jflfh_F-22" edge="1">
          <mxGeometry relative="1" as="geometry">
            <mxPoint x="580" y="375" as="sourcePoint" />
            <mxPoint x="415" y="370" as="targetPoint" />
          </mxGeometry>
        </mxCell>
        <mxCell id="3iqUo-m16Uvu6Jflfh_F-60" value="" style="endArrow=classic;html=1;exitX=0.25;exitY=1;exitDx=0;exitDy=0;endFill=1;dashed=1;edgeStyle=orthogonalEdgeStyle;curved=1;strokeWidth=2;strokeColor=#00CC00;" parent="1" source="3iqUo-m16Uvu6Jflfh_F-6" target="3iqUo-m16Uvu6Jflfh_F-41" edge="1">
          <mxGeometry relative="1" as="geometry">
            <mxPoint x="570" y="520" as="sourcePoint" />
            <mxPoint x="640" y="450" as="targetPoint" />
          </mxGeometry>
        </mxCell>
        <mxCell id="3iqUo-m16Uvu6Jflfh_F-61" value="" style="endArrow=classic;html=1;exitX=0.623;exitY=1.038;exitDx=0;exitDy=0;endFill=1;dashed=1;edgeStyle=orthogonalEdgeStyle;curved=1;strokeWidth=2;exitPerimeter=0;strokeColor=#00CC00;" parent="1" source="3iqUo-m16Uvu6Jflfh_F-9" target="3iqUo-m16Uvu6Jflfh_F-42" edge="1">
          <mxGeometry relative="1" as="geometry">
            <mxPoint x="265" y="230" as="sourcePoint" />
            <mxPoint x="125" y="520" as="targetPoint" />
          </mxGeometry>
        </mxCell>
        <mxCell id="3iqUo-m16Uvu6Jflfh_F-62" value="" style="endArrow=classic;html=1;exitX=1;exitY=0.5;exitDx=0;exitDy=0;endFill=1;dashed=1;edgeStyle=orthogonalEdgeStyle;curved=1;strokeWidth=2;strokeColor=#009900;" parent="1" source="3iqUo-m16Uvu6Jflfh_F-13" target="3iqUo-m16Uvu6Jflfh_F-43" edge="1">
          <mxGeometry relative="1" as="geometry">
            <mxPoint x="376.9000000000001" y="343.03999999999996" as="sourcePoint" />
            <mxPoint x="270" y="520" as="targetPoint" />
          </mxGeometry>
        </mxCell>
        <mxCell id="3iqUo-m16Uvu6Jflfh_F-67" value="" style="endArrow=classic;html=1;strokeWidth=6;strokeColor=#66FF66;edgeStyle=orthogonalEdgeStyle;curved=1;entryX=0.057;entryY=0.017;entryDx=0;entryDy=0;entryPerimeter=0;" parent="1" target="3iqUo-m16Uvu6Jflfh_F-34" edge="1">
          <mxGeometry relative="1" as="geometry">
            <mxPoint x="110" y="530" as="sourcePoint" />
            <mxPoint x="730" y="370" as="targetPoint" />
            <Array as="points">
              <mxPoint x="110" y="540" />
              <mxPoint x="120" y="540" />
              <mxPoint x="120" y="550" />
              <mxPoint x="600" y="550" />
              <mxPoint x="600" y="210" />
              <mxPoint x="590" y="210" />
              <mxPoint x="590" y="150" />
              <mxPoint x="130" y="150" />
              <mxPoint x="130" y="200" />
              <mxPoint x="78" y="200" />
            </Array>
          </mxGeometry>
        </mxCell>
        <mxCell id="3iqUo-m16Uvu6Jflfh_F-63" value="门店管理" style="text;html=1;strokeColor=none;fillColor=none;align=center;verticalAlign=middle;whiteSpace=wrap;rounded=0;" parent="1" vertex="1">
          <mxGeometry x="55" y="340" width="60" height="20" as="geometry" />
        </mxCell>
        <mxCell id="3iqUo-m16Uvu6Jflfh_F-65" value="价格管理" style="text;html=1;strokeColor=none;fillColor=none;align=center;verticalAlign=middle;whiteSpace=wrap;rounded=0;" parent="1" vertex="1">
          <mxGeometry x="55" y="380" width="60" height="20" as="geometry" />
        </mxCell>
        <mxCell id="3iqUo-m16Uvu6Jflfh_F-64" value="商品管理" style="text;html=1;strokeColor=none;fillColor=none;align=center;verticalAlign=middle;whiteSpace=wrap;rounded=0;" parent="1" vertex="1">
          <mxGeometry x="55" y="360" width="60" height="20" as="geometry" />
        </mxCell>
        <mxCell id="3iqUo-m16Uvu6Jflfh_F-27" value="新品到货通知" style="text;html=1;strokeColor=none;fillColor=none;align=center;verticalAlign=middle;whiteSpace=wrap;rounded=0;" parent="1" vertex="1">
          <mxGeometry x="590" y="200" width="80" height="20" as="geometry" />
        </mxCell>
        <mxCell id="3iqUo-m16Uvu6Jflfh_F-28" value="新品到货预告" style="text;html=1;strokeColor=none;fillColor=none;align=center;verticalAlign=middle;whiteSpace=wrap;rounded=0;" parent="1" vertex="1">
          <mxGeometry x="590" y="230" width="80" height="20" as="geometry" />
        </mxCell>
        <mxCell id="3iqUo-m16Uvu6Jflfh_F-70" value="店长管理" style="text;html=1;strokeColor=none;fillColor=none;align=center;verticalAlign=middle;whiteSpace=wrap;rounded=0;" parent="1" vertex="1">
          <mxGeometry x="55" y="400" width="60" height="20" as="geometry" />
        </mxCell>
        <mxCell id="3iqUo-m16Uvu6Jflfh_F-71" value="群主管理" style="text;html=1;strokeColor=none;fillColor=none;align=center;verticalAlign=middle;whiteSpace=wrap;rounded=0;" parent="1" vertex="1">
          <mxGeometry x="55" y="420" width="60" height="20" as="geometry" />
        </mxCell>
        <mxCell id="3iqUo-m16Uvu6Jflfh_F-24" value="线上商城" style="text;html=1;strokeColor=none;fillColor=none;align=center;verticalAlign=middle;whiteSpace=wrap;rounded=0;" parent="1" vertex="1">
          <mxGeometry x="55" y="210" width="60" height="20" as="geometry" />
        </mxCell>
        <mxCell id="3iqUo-m16Uvu6Jflfh_F-25" value="自提" style="text;html=1;strokeColor=none;fillColor=none;align=center;verticalAlign=middle;whiteSpace=wrap;rounded=0;" parent="1" vertex="1">
          <mxGeometry x="50" y="230" width="60" height="20" as="geometry" />
        </mxCell>
        <mxCell id="3iqUo-m16Uvu6Jflfh_F-26" value="配送" style="text;html=1;strokeColor=none;fillColor=none;align=center;verticalAlign=middle;whiteSpace=wrap;rounded=0;" parent="1" vertex="1">
          <mxGeometry x="50" y="250" width="60" height="20" as="geometry" />
        </mxCell>
        <mxCell id="3iqUo-m16Uvu6Jflfh_F-72" value="拼团" style="text;html=1;strokeColor=none;fillColor=none;align=center;verticalAlign=middle;whiteSpace=wrap;rounded=0;" parent="1" vertex="1">
          <mxGeometry x="50" y="270" width="60" height="20" as="geometry" />
        </mxCell>
        <mxCell id="3iqUo-m16Uvu6Jflfh_F-76" value="......" style="text;html=1;strokeColor=none;fillColor=none;align=center;verticalAlign=middle;whiteSpace=wrap;rounded=0;strokeWidth=16;fontSize=58;" parent="1" vertex="1">
          <mxGeometry x="404" y="520" width="76" height="20" as="geometry" />
        </mxCell>
        <mxCell id="3iqUo-m16Uvu6Jflfh_F-78" value="推送消息" style="text;html=1;strokeColor=none;fillColor=none;align=center;verticalAlign=middle;whiteSpace=wrap;rounded=0;fontSize=12;" parent="1" vertex="1">
          <mxGeometry x="510" y="270" width="50" height="20" as="geometry" />
        </mxCell>
        <mxCell id="3iqUo-m16Uvu6Jflfh_F-79" value="线上行为" style="text;html=1;strokeColor=none;fillColor=none;align=center;verticalAlign=middle;whiteSpace=wrap;rounded=0;fontSize=12;fontColor=#FF3333;" parent="1" vertex="1">
          <mxGeometry x="130" y="330" width="50" height="20" as="geometry" />
        </mxCell>
        <mxCell id="3iqUo-m16Uvu6Jflfh_F-80" value="线下行为" style="text;html=1;strokeColor=none;fillColor=none;align=center;verticalAlign=middle;whiteSpace=wrap;rounded=0;fontSize=12;fontColor=#009900;" parent="1" vertex="1">
          <mxGeometry x="115" y="450" width="50" height="20" as="geometry" />
        </mxCell>
        <mxCell id="3iqUo-m16Uvu6Jflfh_F-81" value="好食天天大型社区连锁超市品牌战略规划" style="text;html=1;strokeColor=#82b366;fillColor=#d5e8d4;align=center;verticalAlign=middle;whiteSpace=wrap;rounded=0;fontSize=35;" parent="1" vertex="1">
          <mxGeometry x="70" y="30" width="670" height="60" as="geometry" />
        </mxCell>
      </root>
    </mxGraphModel>
  </diagram>
</mxfile>
